/* XPM */
static char *_7_bar_chart20[] = {
/* columns rows colors chars-per-pixel */
"24 20 2 1 ",
"  c #444444444444",
". c None",
/* pixels */
"........................",
"........................",
"........................",
"........................",
"................  ......",
"................  ......",
"............   .  ......",
"......  ....   .  .   ..",
"......  ....   .  .   ..",
"......  .  .   .  .   ..",
"......  .      .  .   ..",
"..   .  .      .  .   ..",
"..   .  .      .  .   ..",
"..   .  .      .  .   ..",
"..   .  .      .  .   ..",
"..   .  .      .  .   ..",
"..   .  .      .  .   ..",
"........................",
"........................",
"........................"
};
