/* XPM */
static char *_21_recordplayer20[] = {
/* columns rows colors chars-per-pixel */
"25 20 2 1 ",
"  c #444444444444",
". c None",
/* pixels */
"........     ............",
".....          ..........",
"....             ....    ",
"...               ...    ",
"..                ...    ",
".                  ..   .",
".                   . ...",
".       .....         ...",
"       ......        ....",
"       ... ...       ....",
"       ... ...      .....",
"       ......       .....",
".       .....       .....",
".                   .....",
".                  ......",
"..                .......",
"...               .......",
"....             ........",
".....          ..........",
"........     ............"
};
