/* XPM */
static char *_49_piechart20[] = {
/* columns rows colors chars-per-pixel */
"20 20 2 1 ",
"  c #444444444444",
". c None",
/* pixels */
".......   ..........",
"....      ..........",
"...       ..........",
"..        ..........",
".         ..........",
".         ..........",
".         ..........",
"          ..........",
"          ......    ",
"          ...       ",
"          .         ",
"           .        ",
"           .        ",
".                  .",
".            .     .",
".             .   ..",
"..                ..",
"...            .....",
"....           .....",
".......      ......."
};
