/* XPM */
static char *_4_zap20[] = {
/* columns rows colors chars-per-pixel */
"10 20 2 1 ",
"  c #444444444444",
". c None",
/* pixels */
"...      .",
"..       .",
"..      ..",
"..      ..",
".       ..",
".         ",
"         .",
"..      ..",
"..      ..",
"..     ...",
"..     ...",
".     ....",
".      ...",
"       ...",
"...    ...",
"...   ....",
"...   ....",
"...  .....",
"... ......",
".........."
};
